<svg width="20" height="20" xmlns="http://www.w3.org/2000/svg"><g fill="none" fill-rule="evenodd"><path d="M-742-105H698v300a5 5 0 01-5 5H-737a5 5 0 01-5-5v-300z" fill="#FFFFFF"/><path d="M17.875 19.375c.756 0 1.375-.623 1.375-1.388V1.513c0-.765-.619-1.388-1.375-1.388H1.371A1.38 1.38 0 000 1.513v16.474a1.38 1.38 0 001.37 1.388h16.505zM4.391 6.184a1.655 1.655 0 010-3.309c.911 0 1.655.743 1.655 1.654 0 .916-.74 1.655-1.655 1.655zm6.072 10.441H7.61V7.438h2.737v1.255h.039c.382-.722 1.314-1.482 2.702-1.482 2.888 0 3.425 1.903 3.425 4.378v5.036H13.66v-4.469c0-1.065-.022-2.436-1.483-2.436-1.486 0-1.714 1.16-1.714 2.359v4.546zm-4.64 0H2.964V7.438h2.857v9.187z" fill="#387774" fill-rule="nonzero"/></g></svg>
