<svg width="20" height="23" xmlns="http://www.w3.org/2000/svg"><g fill="none" fill-rule="evenodd"><path d="M-812-130H628v300a5 5 0 01-5 5H-807a5 5 0 01-5-5v-300z" fill="#F5F8F8"/><path d="M1.02 22.746l11.025-11L1.02.75c-.56.292-.933.825-.933 1.517v18.962c0 .692.374 1.224.933 1.517zm11.958-11.928l2.582-2.583L3.495 1.31l9.483 9.509zm3.78 3.703l2.583-1.465c.774-.614.774-1.998-.051-2.612l-2.531-1.465-2.823 2.771 2.823 2.771zm-13.263 7.67l12.065-6.926-2.582-2.583-9.483 9.51z" fill="#387774" fill-rule="nonzero"/></g></svg>
