<svg width="20" height="20" xmlns="http://www.w3.org/2000/svg"><g fill="none" fill-rule="evenodd"><path d="M-765-133H675v300a5 5 0 01-5 5H-760a5 5 0 01-5-5v-300z" fill="#F5F8F8"/><path d="M17.187 19.375a2.063 2.063 0 002.063-2.062V2.188A2.063 2.063 0 0017.187.125H2.062A2.063 2.063 0 000 2.188v15.125c0 1.138.924 2.062 2.062 2.062h15.125zm-5.762-6.42H3.61a.862.862 0 01-.859-.859c0-.473.387-.86.86-.86H5.8l2.81-4.863-.88-1.521a.86.86 0 01.314-1.173.86.86 0 011.173.313l.382.662.383-.662a.858.858 0 111.486.86l-3.686 6.385h2.668c.868 0 1.353 1.018.975 1.718zm2.325 2.316c-1.414-2.444-2.47-4.283-3.18-5.504-.717-1.246-.206-2.492.305-2.913.563.975 1.405 2.436 2.531 4.383h2.235a.86.86 0 110 1.719h-1.247l.843 1.456a.86.86 0 01-.314 1.173.86.86 0 01-1.173-.314zm-9.466.314a.858.858 0 01-.314-1.173l.615-1.061c.692-.21 1.259-.047 1.701.49l-.829 1.43a.858.858 0 01-1.173.314z" fill="#387774" fill-rule="nonzero"/></g></svg>
