<svg width="25" height="17" xmlns="http://www.w3.org/2000/svg"><g fill="none" fill-rule="evenodd"><path d="M-777-105H663v300a5 5 0 01-5 5H-772a5 5 0 01-5-5v-300z" fill="#F5F8F8"/><path d="M16.815 16.92l.547-.02c1.73-.07 3.425-.19 4.181-.394a2.905 2.905 0 002.075-2.054c.46-1.73.489-5.227.49-5.644v-.082A46.683 46.683 0 0024 5.833l-.036-.459c-.073-.842-.182-1.678-.345-2.292A2.949 2.949 0 0021.543.994C20.787.79 19.092.67 17.362.6l-.547-.02A145.47 145.47 0 0012.62.5h-.488c-.627.003-2.378.016-4.196.08L7.388.6c-1.73.07-3.425.19-4.181.394a2.949 2.949 0 00-2.075 2.088C.969 3.696.86 4.532.787 5.374l-.036.459a46.683 46.683 0 00-.11 2.893v.082c.002.417.03 3.913.491 5.644a2.905 2.905 0 002.075 2.054c.756.204 2.451.324 4.181.394l.547.02c1.818.064 3.569.077 4.196.08h.488a145.47 145.47 0 004.196-.08zm-6.84-4.664V5.277l6.133 3.49-6.133 3.489z" fill="#387774" fill-rule="nonzero"/></g></svg>
